<svg xmlns="http://www.w3.org/2000/svg" version="1.0" width="256.000000pt" height="256.000000pt" viewBox="0 0 256.000000 256.000000" preserveAspectRatio="xMidYMid meet">
    <g transform="translate(0.000000,256.000000) scale(0.100000,-0.100000)" fill="#8c60c3" stroke="none">
        <path d="M1071 2494 c-240 -40 -485 -168 -661 -344 -586 -586 -433 -1580 301 -1960 544 -281 1195 -130 1560 362 360 485 308 1169 -121 1598 -280 280 -687 410 -1079 344z m469 -192 c204 -57 327 -129 480 -282 154 -154 230 -285 286 -495 29 -106 26 -399 -4 -508 -104 -375 -384 -655 -760 -760 -66 -18 -104 -21 -262 -21 -158 0 -196 3 -262 21 -378 106 -660 387 -760 761 -29 110 -36 336 -14 455 78 416 401 748 815 838 119 26 371 21 481 -9z"/>
        <path d="M1290 1905 l0 -55 38 0 c59 0 165 -26 227 -56 126 -59 246 -211 278 -350 l14 -59 54 4 c30 1 56 5 58 7 10 9 -32 145 -65 214 -49 100 -188 240 -287 288 -83 40 -172 62 -254 62 l-63 0 0 -55z"/>
        <path d="M718 1920 c-45 -24 -91 -79 -125 -150 -32 -66 -41 -176 -23 -264 38 -184 290 -515 518 -679 104 -75 243 -147 362 -188 83 -28 109 -33 200 -33 98 -1 110 1 172 31 80 38 141 98 162 160 17 49 21 130 8 150 -10 17 -318 163 -342 163 -12 0 -47 -33 -90 -85 -39 -47 -80 -89 -90 -95 -16 -8 -35 -4 -93 23 -40 19 -100 51 -133 72 -127 81 -314 294 -314 358 0 16 16 44 40 72 47 54 70 95 70 125 0 30 -128 333 -148 348 -25 19 -131 14 -174 -8z"/>
        <path d="M1304 1738 c4 -28 9 -55 12 -60 3 -4 26 -8 52 -8 61 0 144 -39 201 -93 45 -44 101 -145 101 -184 0 -21 5 -23 56 -23 l57 0 -5 44 c-13 114 -123 263 -237 321 -54 27 -162 55 -215 55 l-29 0 7 -52z"/>
        <path d="M1320 1617 c-3 -3 -3 -28 -2 -56 4 -46 6 -51 28 -51 63 0 145 -67 159 -128 6 -28 8 -30 48 -25 65 7 67 9 58 40 -25 87 -85 158 -161 192 -47 21 -121 37 -130 28z"/>
    </g>
</svg>